# xmcd
#
# Track frame offsets:
#	182
#	23945
#	43110
#	65057
#	93865
#	126152
#	179572
#	194305
#	209802
#
# Disc length: 3011 seconds
#
# Revision: 1
# Processed by: cddbd v1.5.1PL0 Copyright (c) Steve Scherf et al.
# Submitted via: dBpowerAMP V4.0
#
DISCID=890bc109
DTITLE=Flyin' saucers - Bon Ton Rouler
DYEAR=1900
DGENRE=Blues
TTITLE0=Intro - Red Top
TTITLE1=Longue Route
TTITLE2=La Même Chose
TTITLE3=J' abuse Pas
TTITLE4=Boogie Thing
TTITLE5=Stormy Monday
TTITLE6=Bonsoir and à Bientôt
TTITLE7=Mardi Gras
TTITLE8=Still a Fool
EXTD=
EXTT0=
EXTT1=
EXTT2=
EXTT3=
EXTT4=
EXTT5=
EXTT6=
EXTT7=
EXTT8=
PLAYORDER=
